<svg xmlns="http://www.w3.org/2000/svg" viewBox="0 0 32 32" id="rose">
  <path d="m21.19 23.233-1.376-1.45a2.484 2.484 0 0 0-1.748-.78 2.353 2.353 0 0 0-1.566.513v-4.564a4.99 4.99 0 0 0 4.5-4.95v-5.5a.5.5 0 0 0-.5-.5c-.168 0-.334.015-.5.028V4.458a.5.5 0 0 0-.5-.5 5.153 5.153 0 0 0-1.864.356l-.836-.917a1.047 1.047 0 0 0-1.57-.036l-.87.956a5.155 5.155 0 0 0-1.86-.359.5.5 0 0 0-.5.5v1.57a6.507 6.507 0 0 0-.5-.025.5.5 0 0 0-.5.5v5.5a4.99 4.99 0 0 0 4.5 4.95v1.557a2.476 2.476 0 0 0-1.434-.506 2.424 2.424 0 0 0-1.786.685l-1.45 1.376a.5.5 0 0 0-.02.707l1.376 1.452a2.484 2.484 0 0 0 1.748.778h.068a2.47 2.47 0 0 0 1.498-.513v6.014a.5.5 0 1 0 1 0v-3.008a2.474 2.474 0 0 0 1.434.507l.068.001a2.48 2.48 0 0 0 1.718-.686l.003-.002 1.448-1.374a.5.5 0 0 0 .02-.708ZM18 15.447v-2.944a6.458 6.458 0 0 0-1.336-3.932A5.498 5.498 0 0 1 20 7.03v4.973a3.987 3.987 0 0 1-2 3.444Zm-.834-8.52a5.167 5.167 0 0 0-.484-.839A4.136 4.136 0 0 1 19 5.012v1.172a6.506 6.506 0 0 0-1.834.743ZM16.03 4.034l.682.75a5.162 5.162 0 0 0-.717.546 5.138 5.138 0 0 0-.695-.535ZM13 4.998a4.14 4.14 0 0 1 3.334 2.527 6.5 6.5 0 0 0-.335.298A6.488 6.488 0 0 0 13 6.185V4.998Zm-1 7.005V7.028a5.506 5.506 0 0 1 5 5.475v3.358a3.954 3.954 0 0 1-1 .142 4.004 4.004 0 0 1-4-4Zm1.96 10a1.49 1.49 0 0 1-1.048-.468l-1.032-1.088 1.088-1.032a1.461 1.461 0 0 1 1.072-.412 1.48 1.48 0 0 1 1.368 1H14.5a.5.5 0 0 0 0 1h.896a1.464 1.464 0 0 1-.364.588 1.55 1.55 0 0 1-1.072.411Zm5.087 2.604-.015-.016a1.582 1.582 0 0 1-1.072.411 1.493 1.493 0 0 1-1.371-.999h.911a.5.5 0 0 0 0-1h-.907a1.481 1.481 0 0 1 1.406-1h.041a1.487 1.487 0 0 1 1.048.468l1.032 1.088c-.601.571-.912.87-1.073 1.048Z" style="fill:#231f20"></path>
</svg>
